<svg xmlns="http://www.w3.org/2000/svg" version="1.1" xmlns:xlink="http://www.w3.org/1999/xlink" xmlns:svgjs="http://svgjs.dev/svgjs" width="2000" height="2024" viewBox="0 0 2000 2024"><g transform="matrix(1,0,0,1,1.7678688524587187,0.8194331983804659)"><svg viewBox="0 0 244 247" data-background-color="#ffffff" preserveAspectRatio="xMidYMid meet" height="2024" width="2000" xmlns="http://www.w3.org/2000/svg" xmlns:xlink="http://www.w3.org/1999/xlink"><g id="tight-bounds" transform="matrix(1,0,0,1,-0.21567999999996346,-0.09999999999999432)"><svg viewBox="0 0 244.43135999999996 247.2" height="247.2" width="244.43135999999996"><g><svg></svg></g><g><svg viewBox="0 0 244.43135999999996 247.2" height="247.2" width="244.43135999999996"><g transform="matrix(1,0,0,1,0,55.09382601670913)"><svg viewBox="0 0 244.43135999999996 137.01234796658173" height="137.01234796658173" width="244.43135999999996"><g><svg viewBox="0 0 244.43136 137.01234796658176" height="137.01234796658173" width="244.43135999999996"><g transform="matrix(1,0,0,1,0,81.85750176939865)"><svg viewBox="0 0 244.43136 55.1548461971831" height="55.1548461971831" width="244.43136"><g id="textblocktransform"><svg viewBox="0 0 244.43136 55.1548461971831" height="55.1548461971831" width="244.43136" id="textblock"><g><svg viewBox="0 0 244.43136 55.1548461971831" height="55.1548461971831" width="244.43136"><g transform="matrix(1,0,0,1,0,0)"><svg width="244.43136" viewBox="2 -37.7 170.39 38.45" height="55.1548461971831" data-palette-color="#000000"><path d="M29.05-34.55L31.25 0 25.2 0 24.6-14.6Q24.3-22.6 24.3-26L24.3-26 24.35-28.6 19.6-3.8 13.6-3.8 8.65-28.65Q8.7-27.15 8.7-24.05L8.7-24.05Q8.7-18.8 8.5-14.4L8.5-14.4 7.95 0 2 0 4.2-34.55 12.2-34.55 16.7-10.2 20.9-34.55 29.05-34.55ZM45.45-27.15Q50.45-27.15 53.22-23.65 56-20.15 56-13.25L56-13.25Q56-6.65 53.2-2.95 50.4 0.75 45.45 0.75L45.45 0.75Q40.5 0.75 37.7-2.88 34.9-6.5 34.9-13.25L34.9-13.25Q34.9-19.95 37.7-23.55 40.5-27.15 45.45-27.15L45.45-27.15ZM45.45-22.5Q43.3-22.5 42.3-20.38 41.3-18.25 41.3-13.25L41.3-13.25Q41.3-8.2 42.3-6.08 43.3-3.95 45.45-3.95L45.45-3.95Q47.6-3.95 48.6-6.08 49.6-8.2 49.6-13.25L49.6-13.25Q49.6-18.3 48.6-20.4 47.6-22.5 45.45-22.5L45.45-22.5ZM67.9-27.15Q72.6-27.15 75.85-24.05L75.85-24.05 73.5-20.7Q72.1-21.7 70.85-22.2 69.6-22.7 68.3-22.7L68.3-22.7Q66.85-22.7 66.02-21.93 65.2-21.15 65.2-19.8L65.2-19.8Q65.2-18.45 66.12-17.63 67.05-16.8 69.85-15.7L69.85-15.7Q73.3-14.35 74.95-12.5 76.6-10.65 76.6-7.55L76.6-7.55Q76.6-3.7 73.9-1.48 71.2 0.75 67.05 0.75L67.05 0.75Q64.35 0.75 62.07-0.23 59.8-1.2 58.1-2.95L58.1-2.95 61.1-6.25Q63.9-3.8 66.8-3.8L66.8-3.8Q68.45-3.8 69.4-4.67 70.35-5.55 70.35-7.1L70.35-7.1Q70.35-8.25 69.95-8.97 69.55-9.7 68.55-10.33 67.55-10.95 65.55-11.7L65.55-11.7Q62.1-13.05 60.62-14.85 59.15-16.65 59.15-19.45L59.15-19.45Q59.15-22.8 61.52-24.98 63.9-27.15 67.9-27.15L67.9-27.15ZM92.09-35.25Q94.74-35.25 96.77-34.38 98.79-33.5 100.69-31.7L100.69-31.7 97.64-28.05Q96.34-29.25 95.12-29.83 93.89-30.4 92.44-30.4L92.44-30.4Q89.44-30.4 87.74-27.4 86.04-24.4 86.04-17.35L86.04-17.35Q86.04-10.4 87.74-7.38 89.44-4.35 92.54-4.35L92.54-4.35Q94.09-4.35 95.24-4.98 96.39-5.6 97.94-6.9L97.94-6.9 100.99-3.4Q99.39-1.6 97.14-0.43 94.89 0.75 92.09 0.75L92.09 0.75Q86.24 0.75 82.79-3.8 79.34-8.35 79.34-17.35L79.34-17.35Q79.34-23.3 80.99-27.3 82.64-31.3 85.52-33.27 88.39-35.25 92.09-35.25L92.09-35.25ZM113.64-27.15Q118.64-27.15 121.42-23.65 124.19-20.15 124.19-13.25L124.19-13.25Q124.19-6.65 121.39-2.95 118.59 0.75 113.64 0.75L113.64 0.75Q108.69 0.75 105.89-2.88 103.09-6.5 103.09-13.25L103.09-13.25Q103.09-19.95 105.89-23.55 108.69-27.15 113.64-27.15L113.64-27.15ZM113.64-22.5Q111.49-22.5 110.49-20.38 109.49-18.25 109.49-13.25L109.49-13.25Q109.49-8.2 110.49-6.08 111.49-3.95 113.64-3.95L113.64-3.95Q115.79-3.95 116.79-6.08 117.79-8.2 117.79-13.25L117.79-13.25Q117.79-18.3 116.79-20.4 115.79-22.5 113.64-22.5L113.64-22.5ZM141.69-37.7L147.84-37.05 147.84 0 142.39 0 142.09-3.05Q139.74 0.75 136.04 0.75L136.04 0.75Q131.94 0.75 129.76-2.93 127.59-6.6 127.59-13.2L127.59-13.2Q127.59-17.4 128.71-20.58 129.84-23.75 131.84-25.45 133.84-27.15 136.44-27.15L136.44-27.15Q139.64-27.15 141.69-24.5L141.69-24.5 141.69-37.7ZM137.79-3.9Q138.94-3.9 139.86-4.7 140.79-5.5 141.69-7L141.69-7 141.69-19.85Q140.09-22.55 138.04-22.55L138.04-22.55Q133.99-22.55 133.99-13.25L133.99-13.25Q133.99-8.2 134.99-6.05 135.99-3.9 137.79-3.9L137.79-3.9ZM172.39-13.85Q172.39-13.4 172.24-11.3L172.24-11.3 158.59-11.3Q158.79-7.2 160.01-5.58 161.24-3.95 163.49-3.95L163.49-3.95Q165.04-3.95 166.29-4.48 167.54-5 168.99-6.15L168.99-6.15 171.54-2.65Q168.04 0.75 163.14 0.75L163.14 0.75Q157.94 0.75 155.16-2.85 152.39-6.45 152.39-13L152.39-13Q152.39-19.55 155.04-23.35 157.69-27.15 162.54-27.15L162.54-27.15Q167.19-27.15 169.79-23.78 172.39-20.4 172.39-13.85L172.39-13.85ZM166.39-15.3L166.39-15.65Q166.39-19.4 165.49-21.13 164.59-22.85 162.59-22.85L162.59-22.85Q160.74-22.85 159.76-21.18 158.79-19.5 158.59-15.3L158.59-15.3 166.39-15.3Z" opacity="1" transform="matrix(1,0,0,1,0,0)" fill="#ffffff" class="wordmark-text-0" data-fill-palette-color="primary" id="text-0"></path></svg></g></svg></g></svg></g></svg></g><g transform="matrix(1,0,0,1,46.68638976,0)"><svg viewBox="0 0 151.05858048000002 68.83676629855246" height="68.83676629855246" width="151.05858048000002"><g><svg xmlns="http://www.w3.org/2000/svg" xmlns:xlink="http://www.w3.org/1999/xlink" version="1.1" x="0" y="0" viewBox="5 29.49387475885969 90 41.012625348283166" enable-background="new 0 0 100 100" xml:space="preserve" height="68.83676629855246" width="151.05858048000002" class="icon-icon-0" data-fill-palette-color="accent" id="icon-0"><g fill="#000000" data-fill-palette-color="accent"><path d="M23.943 30.807L5 50.001l18.942 19.192c1.728 1.751 4.53 1.751 6.258 0.002 1.729-1.75 1.73-4.587 0.002-6.338L18.193 50.695l-3.624 2.289 15.634-15.841c0.864-0.875 1.295-2.021 1.295-3.168 0-1.147-0.433-2.295-1.297-3.17C28.473 29.056 25.671 29.057 23.943 30.807z" fill="#ffffff" data-fill-palette-color="accent"></path><path d="M76.057 30.808L95 50.001 76.058 69.193c-1.728 1.751-4.53 1.751-6.258 0.002-1.729-1.75-1.73-4.587-0.002-6.338l12.009-12.161 3.624 2.289L69.796 37.144c-0.864-0.875-1.295-2.021-1.295-3.168 0-1.147 0.433-2.295 1.297-3.17C71.527 29.056 74.329 29.057 76.057 30.808z" fill="#ffffff" data-fill-palette-color="accent"></path><path d="M60.899 32.352c-0.419-1.068-1.241-1.978-2.366-2.476-2.249-0.997-4.857 0.028-5.825 2.288l-13.82 32.062c-0.484 1.13-0.467 2.355-0.048 3.422 0.419 1.068 1.241 1.978 2.366 2.476 2.249 0.997 4.857-0.028 5.825-2.288l13.82-32.062C61.335 34.644 61.318 33.419 60.899 32.352z" fill="#ffffff" data-fill-palette-color="accent"></path></g></svg></g></svg></g><g></g></svg></g></svg></g><path d="M0 49.094L0 1 244.431 1 244.431 49.094 239.457 49.094 239.457 5.974 4.974 5.974 4.974 49.094 0 49.094M0 198.106L0 246.2 244.431 246.2 244.431 198.106 239.457 198.106 239.457 241.226 4.974 241.226 4.974 198.106 0 198.106" fill="#ffffff" stroke="transparent" data-fill-palette-color="tertiary"></path></svg></g><defs></defs></svg><rect width="244.43135999999996" height="247.2" fill="none" stroke="none" visibility="hidden"></rect></g></svg></g></svg>